<svg version="1.1" id="Layer_1" xmlns="http://www.w3.org/2000/svg" xmlns:xlink="http://www.w3.org/1999/xlink" x="0px" y="0px"
	 width="100%" viewBox="0 0 57 254" enable-background="new 0 0 57 254" xml:space="preserve">
<path fill="#010101" opacity="1.000000" stroke="none" 
	d="
M58.000000,88.000000 
	C58.000000,144.000000 58.000000,199.500000 58.000000,255.000000 
	C39.000000,255.000000 20.000000,255.000000 1.000000,255.000000 
	C1.000000,170.333328 1.000000,85.666664 1.000000,1.000000 
	C20.000000,1.000000 39.000000,1.000000 58.000000,1.000000 
	C58.000000,29.833334 58.000000,58.666668 58.000000,88.000000 
M45.406815,73.968346 
	C48.307133,72.830246 51.207447,71.692146 54.840427,70.266548 
	C52.170319,67.804443 50.045383,65.845039 47.767956,63.745029 
	C43.580280,69.226936 38.142704,66.159134 32.521896,67.229965 
	C33.274330,64.730095 33.817513,62.925446 34.440525,60.855560 
	C31.756752,60.511501 29.081738,60.168560 25.963842,59.768845 
	C25.963842,62.478661 25.963842,64.564453 25.963842,67.132225 
	C21.172522,65.972946 16.037771,69.563660 12.838425,64.700340 
	C11.518044,66.369858 9.895782,67.814606 9.074571,69.623108 
	C8.181038,71.590874 8.031430,73.896454 7.557480,76.054749 
	C9.394023,75.671585 11.230565,75.288429 13.181235,75.711349 
	C16.337183,76.364388 19.493132,77.017433 23.769838,77.902382 
	C17.554932,82.211601 12.025026,86.045860 6.495122,89.880112 
	C6.534090,90.078636 6.573058,90.277161 6.612026,90.475677 
	C11.050143,88.957542 15.488260,87.439400 20.401602,86.291405 
	C20.573259,86.395569 20.744917,86.499725 20.520182,87.169937 
	C15.856848,90.764824 11.193515,94.359711 6.530181,97.954597 
	C6.635305,98.219498 6.740428,98.484398 6.845552,98.749298 
	C13.289098,95.511520 19.732643,92.273735 26.176188,89.035950 
	C26.476391,89.475143 26.776592,89.914337 27.076796,90.353531 
	C20.616394,95.302689 14.155993,100.251854 7.387613,105.436943 
	C14.134140,103.412819 21.814922,98.278709 25.899443,108.899200 
	C33.120979,106.822334 34.559128,104.430382 35.192482,93.889015 
	C39.309273,97.660141 43.611958,101.601547 47.855106,105.488419 
	C50.242077,103.273659 51.916412,101.720108 53.175289,100.552055 
	C47.291080,97.186630 41.430847,93.834915 35.570618,90.483200 
	C35.740513,89.930435 35.910408,89.377663 36.080303,88.824890 
	C40.254032,86.982056 44.427761,85.139214 48.927589,83.152390 
	C46.750259,81.340057 44.685097,79.621086 42.690716,77.961037 
	C39.810925,81.567360 37.231705,84.797272 34.696224,87.972412 
	C32.313034,85.183136 30.300636,82.827827 28.358511,80.554764 
	C32.980808,74.592361 39.787678,77.998131 45.570019,76.754791 
	C45.210327,75.727600 44.900578,74.843040 45.406815,73.968346 
M8.083719,46.365410 
	C9.747293,44.486637 11.410869,42.607864 13.283464,40.493031 
	C14.438016,42.409451 15.270870,43.791893 16.415064,45.691124 
	C13.073351,48.781658 9.769113,51.837540 6.464874,54.893417 
	C9.731069,53.955208 12.748608,52.303757 15.849989,50.828575 
	C16.969255,50.296196 18.757460,49.510857 19.446838,49.987854 
	C27.288786,55.413853 36.181744,54.799599 45.038197,55.131298 
	C49.963913,55.315781 53.022362,53.914928 54.303867,49.205368 
	C46.243717,49.559116 38.181221,49.912971 29.647768,50.287495 
	C36.617954,42.403511 44.350597,46.932903 52.800797,48.298157 
	C52.800797,39.572098 52.800797,31.569515 52.800797,23.566935 
	C53.153152,23.569698 53.505512,23.572460 53.857868,23.575224 
	C52.397018,22.022663 50.936169,20.470100 50.352245,19.849518 
	C46.115925,20.464855 42.833462,20.941641 39.450249,21.433062 
	C41.277676,11.562516 49.135750,14.566578 56.167812,13.727416 
	C53.457630,11.555901 51.761219,10.196662 51.234467,9.774605 
	C47.089752,10.686772 44.148235,11.565445 41.143543,11.948132 
	C34.518700,12.791895 27.392508,10.173783 21.310150,14.931658 
	C20.897976,15.254079 19.831135,14.739586 18.599470,14.537222 
	C19.387465,12.282680 20.044859,10.401801 20.799337,8.243154 
	C18.483944,8.243154 16.410326,8.243154 13.956182,8.243154 
	C13.956182,10.472205 13.956182,12.573040 13.956182,15.200586 
	C11.107554,15.200586 8.601162,15.200586 6.094769,15.200586 
	C6.082307,15.651845 6.069845,16.103104 6.057383,16.554361 
	C8.646540,16.728947 11.235697,16.903534 14.099491,17.096638 
	C13.899989,18.651049 13.746514,19.846834 13.623814,20.802849 
	C11.090065,21.051136 9.017760,21.254208 6.945455,21.457277 
	C6.982155,21.900749 7.018856,22.344221 7.055556,22.787693 
	C9.265617,22.915274 11.475678,23.042854 13.788297,23.176355 
	C13.788297,24.837881 13.788297,26.243143 13.788297,28.205956 
	C10.779388,28.205956 7.943904,28.205956 5.108420,28.205956 
	C5.086007,28.627094 5.063594,29.048233 5.041182,29.469370 
	C7.319030,29.686510 9.596878,29.903650 12.571024,30.187166 
	C10.587656,35.700985 8.749460,40.811218 6.351662,46.119663 
	C6.310188,46.659950 6.268714,47.200241 6.227242,47.740528 
	C6.667816,47.429329 7.108390,47.118130 8.083719,46.365410 
M41.579071,150.030319 
	C43.582367,151.040207 45.497074,152.377151 47.618282,152.951721 
	C49.184818,153.376038 51.020592,152.806366 52.736412,152.679565 
	C52.031021,151.196014 51.715401,149.050903 50.542927,148.360123 
	C47.687725,146.677917 44.435089,145.670258 41.005508,144.251511 
	C41.005508,141.166977 41.005508,137.739716 41.005508,134.115417 
	C43.541702,133.729889 45.981316,133.514801 48.332893,132.939713 
	C49.622116,132.624435 50.874176,131.830292 51.885201,130.954468 
	C52.112907,130.757217 51.483616,128.826843 50.868710,128.555374 
	C49.583744,127.988129 47.992828,127.642609 46.623154,127.846855 
	C44.462612,128.169037 42.380756,129.018875 40.208466,129.662277 
	C39.888111,125.285629 38.635578,120.797470 44.789410,119.381989 
	C46.636898,121.660950 49.454742,123.789009 52.322578,120.908875 
	C53.949368,119.275108 54.936764,116.037041 54.597759,113.762077 
	C54.380653,112.305130 51.157776,110.192833 49.390194,110.292213 
	C45.291348,110.522675 43.299419,113.499275 43.798393,117.915672 
	C36.933632,113.415115 25.339493,116.777435 22.546438,123.615257 
	C26.446012,122.592957 30.473057,121.537231 34.572807,120.462448 
	C34.572807,124.619270 34.572807,127.672203 34.572807,131.477051 
	C30.042681,130.771057 26.046978,130.148346 21.919085,129.505051 
	C24.581999,136.459366 30.806450,132.952454 35.605606,134.449219 
	C35.605606,137.509750 35.605606,140.569260 35.605606,143.999817 
	C33.295406,143.999817 30.708948,143.330536 28.787823,144.174942 
	C26.555653,145.156082 23.830137,147.211044 23.344139,149.276505 
	C22.952517,150.940887 25.090202,154.145462 26.944330,155.220871 
	C33.202908,158.850983 37.969242,156.940689 41.579071,150.030319 
M38.369381,204.991165 
	C46.119537,203.927063 52.056431,197.183456 52.382729,190.008591 
	C49.973980,192.446884 47.317024,195.752121 44.027443,198.211014 
	C42.339573,199.472672 39.125950,200.135284 37.342491,199.361511 
	C35.964874,198.763840 35.307858,195.553055 35.091095,193.426514 
	C34.613514,188.741165 32.238838,185.222305 28.452040,185.071793 
	C26.430323,184.991455 24.379284,185.648865 21.115088,186.168579 
	C25.562933,180.327484 29.482033,175.372284 33.139961,170.231277 
	C33.969673,169.065186 34.698162,166.638947 34.093292,165.847778 
	C31.597599,162.583450 28.217394,160.977005 23.100670,162.798767 
	C28.020205,165.041428 27.680647,167.514221 25.167091,170.951202 
	C21.741135,175.635773 18.903339,180.751053 15.823298,185.687866 
	C13.087841,190.072342 10.113104,194.337128 7.785228,198.929123 
	C7.043868,200.391541 8.037418,202.733490 8.237103,204.672974 
	C9.831188,203.717743 11.925159,203.117050 12.909356,201.729294 
	C14.651397,199.272980 15.750935,196.353439 17.060263,193.599655 
	C18.821951,189.894470 21.624733,187.052063 25.778461,187.841431 
	C30.272711,188.695511 28.879923,192.964157 28.964581,196.065948 
	C29.129627,202.113159 31.529478,204.707764 38.369381,204.991165 
M34.581203,240.087814 
	C27.071428,236.717743 25.284061,230.625305 29.692451,223.743301 
	C34.534138,216.184875 41.905819,214.437042 50.045780,215.334915 
	C52.961826,215.656555 53.777042,214.377609 52.758781,212.744080 
	C51.694977,211.037476 49.059311,208.996719 47.380798,209.211548 
	C39.529518,210.216492 31.789206,212.053757 23.973906,213.386353 
	C18.573668,214.307144 13.115826,214.890106 7.478029,215.651825 
	C7.505267,219.978546 11.531878,222.557190 16.903528,220.576096 
	C21.278023,218.962799 25.792807,217.729889 30.245380,216.328293 
	C21.014833,228.748917 22.769701,236.928864 28.108410,243.376892 
	C32.502579,248.684082 42.523907,250.259109 47.973148,246.220963 
	C46.102249,244.700851 44.627735,242.881348 42.728695,242.118057 
	C40.386387,241.176605 37.690815,241.114075 34.581203,240.087814 
M14.025264,140.628448 
	C13.502401,141.629150 12.979540,142.629868 12.456677,143.630569 
	C11.860171,143.419739 11.263664,143.208923 10.667157,142.998108 
	C12.391387,136.834885 14.255626,130.705658 15.764133,124.490074 
	C16.294237,122.305862 16.878540,119.164894 15.777727,117.795540 
	C14.339250,116.006149 11.252327,115.541924 8.651587,114.410576 
	C9.654986,117.329094 11.078880,119.341843 10.823787,121.112732 
	C9.921757,127.374802 8.434487,133.551956 7.189475,139.765396 
	C5.808515,146.657288 8.767810,155.169235 13.911347,158.128922 
	C15.126444,150.138977 16.318184,142.302612 17.556860,134.157623 
	C16.474113,136.218536 15.479019,138.112625 14.025264,140.628448 
z"/>
<path fill="#FBFBFB" opacity="1.000000" stroke="none" 
	d="
M6.911263,45.921455 
	C8.749460,40.811218 10.587656,35.700985 12.571024,30.187166 
	C9.596878,29.903650 7.319030,29.686510 5.041182,29.469370 
	C5.063594,29.048233 5.086007,28.627094 5.108420,28.205956 
	C7.943904,28.205956 10.779388,28.205956 13.788297,28.205956 
	C13.788297,26.243143 13.788297,24.837881 13.788297,23.176355 
	C11.475678,23.042854 9.265617,22.915274 7.055556,22.787693 
	C7.018856,22.344221 6.982155,21.900749 6.945455,21.457277 
	C9.017760,21.254208 11.090065,21.051136 13.623814,20.802849 
	C13.746514,19.846834 13.899989,18.651049 14.099491,17.096638 
	C11.235697,16.903534 8.646540,16.728947 6.057383,16.554361 
	C6.069845,16.103104 6.082307,15.651845 6.094769,15.200586 
	C8.601162,15.200586 11.107554,15.200586 13.956182,15.200586 
	C13.956182,12.573040 13.956182,10.472205 13.956182,8.243154 
	C16.410326,8.243154 18.483944,8.243154 20.799337,8.243154 
	C20.044859,10.401801 19.387465,12.282680 18.599470,14.537222 
	C19.831135,14.739586 20.897976,15.254079 21.310150,14.931658 
	C27.392508,10.173783 34.518700,12.791895 41.143543,11.948132 
	C44.148235,11.565445 47.089752,10.686772 51.234467,9.774605 
	C51.761219,10.196662 53.457630,11.555901 56.167812,13.727416 
	C49.135750,14.566578 41.277676,11.562516 39.450249,21.433062 
	C42.833462,20.941641 46.115925,20.464855 50.352245,19.849518 
	C50.936169,20.470100 52.397018,22.022663 53.857868,23.575224 
	C53.505512,23.572460 53.153152,23.569698 52.800797,23.566935 
	C52.800797,31.569515 52.800797,39.572098 52.800797,48.298157 
	C44.350597,46.932903 36.617954,42.403511 29.647768,50.287495 
	C38.181221,49.912971 46.243717,49.559116 54.303867,49.205368 
	C53.022362,53.914928 49.963913,55.315781 45.038197,55.131298 
	C36.181744,54.799599 27.288786,55.413853 19.446838,49.987854 
	C18.757460,49.510857 16.969255,50.296196 15.849989,50.828575 
	C12.748608,52.303757 9.731069,53.955208 6.464874,54.893417 
	C9.769113,51.837540 13.073351,48.781658 16.415064,45.691124 
	C15.270870,43.791893 14.438016,42.409451 13.283464,40.493031 
	C11.410869,42.607864 9.747293,44.486637 7.667696,46.357037 
	C7.138204,46.206261 7.024734,46.063858 6.911263,45.921455 
M17.005648,35.005852 
	C18.924221,34.613125 20.842796,34.220394 22.430964,33.895298 
	C23.997248,35.076832 25.692484,36.355637 26.990795,37.335018 
	C24.659428,40.613800 22.690180,43.383308 20.535002,46.414299 
	C23.192038,47.507046 25.347389,48.393467 27.716228,49.367683 
	C27.716228,42.493031 27.716228,36.261944 27.716228,30.114285 
	C23.757925,30.114285 20.082441,30.114285 17.735071,30.114285 
	C17.090322,32.170742 16.685673,33.461388 17.005648,35.005852 
M36.926540,14.596974 
	C34.364326,14.531322 29.749186,13.879349 29.573286,14.495236 
	C28.437151,18.473259 25.538425,16.384710 23.493126,16.805134 
	C22.086803,17.094213 20.599545,16.989546 18.897055,17.073227 
	C19.107306,18.630022 19.267454,19.815819 19.547424,21.888832 
	C21.696146,20.380268 23.168436,19.346609 24.540337,18.383432 
	C25.681282,19.190908 26.643223,20.193842 27.808819,20.576609 
	C28.515574,20.808695 29.708569,19.610594 30.390873,19.858696 
	C36.249424,21.989027 36.889324,21.613562 36.926540,14.596974 
M33.005962,36.418167 
	C33.118832,38.945362 33.231701,41.472561 33.344574,43.999756 
	C33.715088,43.961792 34.085602,43.923828 34.456116,43.885860 
	C34.456116,36.950085 34.456116,30.014305 34.456116,23.078526 
	C33.972866,23.075270 33.489613,23.072016 33.006363,23.068762 
	C33.006363,27.195541 33.006363,31.322321 33.005962,36.418167 
M46.993412,31.546879 
	C46.993412,28.706156 46.993412,25.865435 46.993412,23.024712 
	C46.513149,23.054102 46.032883,23.083492 45.552620,23.112883 
	C45.552620,30.049761 45.552620,36.986641 45.552620,43.923519 
	C46.032715,43.927139 46.512806,43.930759 46.992901,43.934380 
	C46.992901,40.131363 46.992901,36.328342 46.993412,31.546879 
M27.997475,24.872196 
	C25.169584,24.006672 22.341694,23.141146 19.230782,22.188997 
	C19.230782,24.932508 19.230782,26.369209 19.230782,29.407551 
	C21.588284,27.132721 23.031303,25.740305 24.189310,24.622910 
	C25.476711,24.976740 26.736223,25.322905 27.997475,24.872196 
M38.010162,35.315960 
	C39.144493,35.987400 40.278828,36.658840 41.858978,37.594173 
	C41.858978,34.358665 41.858978,32.429890 41.858978,30.517021 
	C38.111835,30.133047 38.111835,30.133047 38.010162,35.315960 
z"/>
<path fill="#FCFCFC" opacity="1.000000" stroke="none" 
	d="
M19.926380,85.921265 
	C15.488260,87.439400 11.050143,88.957542 6.612026,90.475677 
	C6.573058,90.277161 6.534090,90.078636 6.495122,89.880112 
	C12.025026,86.045860 17.554932,82.211601 23.769838,77.902382 
	C19.493132,77.017433 16.337183,76.364388 13.091104,75.350296 
	C13.000972,74.989243 12.920382,75.059357 13.393709,75.037781 
	C19.287220,75.013870 24.724846,75.274345 30.121418,74.916222 
	C33.680611,74.680008 37.180740,73.553841 40.707317,72.826157 
	C40.617970,72.404869 40.528625,71.983582 40.439278,71.562294 
	C41.815479,72.388351 43.191677,73.214409 44.583908,74.022865 
	C44.599941,74.005264 44.590828,73.958473 44.590828,73.958473 
	C44.900578,74.843040 45.210327,75.727600 45.570019,76.754791 
	C39.787678,77.998131 32.980808,74.592361 28.358511,80.554764 
	C30.300636,82.827827 32.313034,85.183136 34.696224,87.972412 
	C37.231705,84.797272 39.810925,81.567360 42.690716,77.961037 
	C44.685097,79.621086 46.750259,81.340057 48.927589,83.152390 
	C44.427761,85.139214 40.254032,86.982056 36.080303,88.824890 
	C35.910408,89.377663 35.740513,89.930435 35.570618,90.483200 
	C41.430847,93.834915 47.291080,97.186630 53.175289,100.552055 
	C51.916412,101.720108 50.242077,103.273659 47.855106,105.488419 
	C43.611958,101.601547 39.309273,97.660141 35.192482,93.889015 
	C34.559128,104.430382 33.120979,106.822334 25.899443,108.899200 
	C21.814922,98.278709 14.134140,103.412819 7.387613,105.436943 
	C14.155993,100.251854 20.616394,95.302689 27.076796,90.353531 
	C26.776592,89.914337 26.476391,89.475143 26.176188,89.035950 
	C19.732643,92.273735 13.289098,95.511520 6.845552,98.749298 
	C6.740428,98.484398 6.635305,98.219498 6.530181,97.954597 
	C11.193515,94.359711 15.856848,90.764824 20.969810,86.733871 
	C21.491716,85.930817 21.563993,85.563843 21.636272,85.196861 
	C21.066307,85.438332 20.496344,85.679802 19.926380,85.921265 
M24.943237,97.521004 
	C23.328444,98.513016 21.713652,99.505020 19.958673,100.583153 
	C26.375740,103.632347 28.424881,102.301636 29.925095,93.913124 
	C28.223406,95.094292 26.844149,96.051659 24.943237,97.521004 
M28.908781,87.551773 
	C28.788774,87.157303 28.668766,86.762840 28.548761,86.368370 
	C28.345831,86.471367 27.962420,86.590630 27.969990,86.674652 
	C28.011360,87.133759 28.148823,87.584213 28.908781,87.551773 
z"/>
<path fill="#FCFCFC" opacity="1.000000" stroke="none" 
	d="
M41.220314,150.181244 
	C37.969242,156.940689 33.202908,158.850983 26.944330,155.220871 
	C25.090202,154.145462 22.952517,150.940887 23.344139,149.276505 
	C23.830137,147.211044 26.555653,145.156082 28.787823,144.174942 
	C30.708948,143.330536 33.295406,143.999817 35.605606,143.999817 
	C35.605606,140.569260 35.605606,137.509750 35.605606,134.449219 
	C30.806450,132.952454 24.581999,136.459366 21.919085,129.505051 
	C26.046978,130.148346 30.042681,130.771057 34.572807,131.477051 
	C34.572807,127.672203 34.572807,124.619270 34.572807,120.462448 
	C30.473057,121.537231 26.446012,122.592957 22.546438,123.615257 
	C25.339493,116.777435 36.933632,113.415115 43.798393,117.915672 
	C43.299419,113.499275 45.291348,110.522675 49.390194,110.292213 
	C51.157776,110.192833 54.380653,112.305130 54.597759,113.762077 
	C54.936764,116.037041 53.949368,119.275108 52.322578,120.908875 
	C49.454742,123.789009 46.636898,121.660950 44.789410,119.381989 
	C38.635578,120.797470 39.888111,125.285629 40.208466,129.662277 
	C42.380756,129.018875 44.462612,128.169037 46.623154,127.846855 
	C47.992828,127.642609 49.583744,127.988129 50.868710,128.555374 
	C51.483616,128.826843 52.112907,130.757217 51.885201,130.954468 
	C50.874176,131.830292 49.622116,132.624435 48.332893,132.939713 
	C45.981316,133.514801 43.541702,133.729889 41.005508,134.115417 
	C41.005508,137.739716 41.005508,141.166977 41.005508,144.251511 
	C44.435089,145.670258 47.687725,146.677917 50.542927,148.360123 
	C51.715401,149.050903 52.031021,151.196014 52.736412,152.679565 
	C51.020592,152.806366 49.184818,153.376038 47.618282,152.951721 
	C45.497074,152.377151 43.582367,151.040207 41.220314,150.181244 
M34.755074,147.199036 
	C32.432629,147.134476 30.079882,146.830643 27.802143,147.119095 
	C26.845396,147.240280 25.779999,148.477325 25.272001,149.467667 
	C24.938463,150.117889 25.354206,151.946991 25.708603,152.026550 
	C27.999441,152.540741 30.576719,153.397644 32.630302,152.759399 
	C33.918179,152.359116 34.456219,149.546234 34.755074,147.199036 
M46.022015,114.857834 
	C46.947838,116.561577 47.675571,118.441368 48.930092,119.853020 
	C49.270206,120.235725 51.726486,119.552788 52.272133,118.733414 
	C52.968300,117.688004 53.287766,115.721764 52.758179,114.654137 
	C51.086128,111.283318 48.709690,111.428665 46.022015,114.857834 
z"/>
<path fill="#FCFCFC" opacity="1.000000" stroke="none" 
	d="
M37.949150,204.996521 
	C31.529478,204.707764 29.129627,202.113159 28.964581,196.065948 
	C28.879923,192.964157 30.272711,188.695511 25.778461,187.841431 
	C21.624733,187.052063 18.821951,189.894470 17.060263,193.599655 
	C15.750935,196.353439 14.651397,199.272980 12.909356,201.729294 
	C11.925159,203.117050 9.831188,203.717743 8.237104,204.672974 
	C8.037418,202.733490 7.043868,200.391541 7.785228,198.929123 
	C10.113104,194.337128 13.087841,190.072342 15.823298,185.687866 
	C18.903339,180.751053 21.741135,175.635773 25.167091,170.951202 
	C27.680647,167.514221 28.020205,165.041428 23.100670,162.798767 
	C28.217394,160.977005 31.597599,162.583450 34.093292,165.847778 
	C34.698162,166.638947 33.969673,169.065186 33.139961,170.231277 
	C29.482033,175.372284 25.562933,180.327484 21.115088,186.168579 
	C24.379284,185.648865 26.430323,184.991455 28.452040,185.071793 
	C32.238838,185.222305 34.613514,188.741165 35.091095,193.426514 
	C35.307858,195.553055 35.964874,198.763840 37.342491,199.361511 
	C39.125950,200.135284 42.339573,199.472672 44.027443,198.211014 
	C47.317024,195.752121 49.973980,192.446884 52.382729,190.008591 
	C52.056431,197.183456 46.119537,203.927063 37.949150,204.996521 
z"/>
<path fill="#FCFCFC" opacity="1.000000" stroke="none" 
	d="
M34.864552,240.379776 
	C37.690815,241.114075 40.386387,241.176605 42.728695,242.118057 
	C44.627735,242.881348 46.102249,244.700851 47.973148,246.220963 
	C42.523907,250.259109 32.502579,248.684082 28.108410,243.376892 
	C22.769701,236.928864 21.014833,228.748917 30.245380,216.328293 
	C25.792807,217.729889 21.278023,218.962799 16.903528,220.576096 
	C11.531878,222.557190 7.505267,219.978546 7.478029,215.651825 
	C13.115826,214.890106 18.573668,214.307144 23.973906,213.386353 
	C31.789206,212.053757 39.529518,210.216492 47.380798,209.211548 
	C49.059311,208.996719 51.694977,211.037476 52.758781,212.744080 
	C53.777042,214.377609 52.961826,215.656555 50.045780,215.334915 
	C41.905819,214.437042 34.534138,216.184875 29.692451,223.743301 
	C25.284061,230.625305 27.071428,236.717743 34.864552,240.379776 
z"/>
<path fill="#FCFCFC" opacity="1.000000" stroke="none" 
	d="
M14.254595,140.317581 
	C15.479019,138.112625 16.474113,136.218536 17.556860,134.157623 
	C16.318184,142.302612 15.126444,150.138977 13.911347,158.128922 
	C8.767810,155.169235 5.808515,146.657288 7.189475,139.765396 
	C8.434487,133.551956 9.921757,127.374802 10.823787,121.112732 
	C11.078880,119.341843 9.654986,117.329094 8.651587,114.410576 
	C11.252327,115.541924 14.339250,116.006149 15.777727,117.795540 
	C16.878540,119.164894 16.294237,122.305862 15.764133,124.490074 
	C14.255626,130.705658 12.391387,136.834885 10.667157,142.998108 
	C11.263664,143.208923 11.860171,143.419739 12.456677,143.630569 
	C12.979540,142.629868 13.502401,141.629150 14.254595,140.317581 
z"/>
<path fill="#FDFDFD" opacity="1.000000" stroke="none" 
	d="
M44.998821,73.963409 
	C44.590828,73.958473 44.599941,74.005264 44.323090,73.687553 
	C44.387859,71.712120 44.729477,70.054398 45.101578,68.248741 
	C34.435986,68.248741 24.332529,68.248741 14.528760,68.248741 
	C13.950040,70.699310 13.435211,72.879333 12.920382,75.059357 
	C12.920382,75.059357 13.000972,74.989243 13.034040,74.947250 
	C11.230565,75.288429 9.394023,75.671585 7.557480,76.054749 
	C8.031430,73.896454 8.181038,71.590874 9.074571,69.623108 
	C9.895782,67.814606 11.518044,66.369858 12.838425,64.700340 
	C16.037771,69.563660 21.172522,65.972946 25.963842,67.132225 
	C25.963842,64.564453 25.963842,62.478661 25.963842,59.768845 
	C29.081738,60.168560 31.756752,60.511501 34.440525,60.855560 
	C33.817513,62.925446 33.274330,64.730095 32.521896,67.229965 
	C38.142704,66.159134 43.580280,69.226936 47.767956,63.745029 
	C50.045383,65.845039 52.170319,67.804443 54.840427,70.266548 
	C51.207447,71.692146 48.307133,72.830246 44.998821,73.963409 
z"/>
<path fill="#FBFBFB" opacity="1.000000" stroke="none" 
	d="
M7.400319,46.577797 
	C7.108390,47.118130 6.667816,47.429329 6.227242,47.740528 
	C6.268714,47.200241 6.310188,46.659950 6.631463,46.020561 
	C7.024734,46.063858 7.138204,46.206261 7.400319,46.577797 
z"/>
<path fill="#020202" opacity="1.000000" stroke="none" 
	d="
M16.643335,34.878944 
	C16.685673,33.461388 17.090322,32.170742 17.735071,30.114285 
	C20.082441,30.114285 23.757925,30.114285 27.716228,30.114285 
	C27.716228,36.261944 27.716228,42.493031 27.716228,49.367683 
	C25.347389,48.393467 23.192038,47.507046 20.535002,46.414299 
	C22.690180,43.383308 24.659428,40.613800 26.990795,37.335018 
	C25.692484,36.355637 23.997248,35.076832 22.430964,33.895298 
	C20.842796,34.220394 18.924221,34.613125 16.643335,34.878944 
z"/>
<path fill="#020202" opacity="1.000000" stroke="none" 
	d="
M36.958847,15.047628 
	C36.889324,21.613562 36.249424,21.989027 30.390873,19.858696 
	C29.708569,19.610594 28.515574,20.808695 27.808819,20.576609 
	C26.643223,20.193842 25.681282,19.190908 24.540337,18.383432 
	C23.168436,19.346609 21.696146,20.380268 19.547424,21.888832 
	C19.267454,19.815819 19.107306,18.630022 18.897055,17.073227 
	C20.599545,16.989546 22.086803,17.094213 23.493126,16.805134 
	C25.538425,16.384710 28.437151,18.473259 29.573286,14.495236 
	C29.749186,13.879349 34.364326,14.531322 36.958847,15.047628 
z"/>
<path fill="#010101" opacity="1.000000" stroke="none" 
	d="
M33.006165,35.933632 
	C33.006363,31.322321 33.006363,27.195541 33.006363,23.068762 
	C33.489613,23.072016 33.972866,23.075270 34.456116,23.078526 
	C34.456116,30.014305 34.456116,36.950085 34.456116,43.885860 
	C34.085602,43.923828 33.715088,43.961792 33.344574,43.999756 
	C33.231701,41.472561 33.118832,38.945362 33.006165,35.933632 
z"/>
<path fill="#010101" opacity="1.000000" stroke="none" 
	d="
M46.993156,32.036102 
	C46.992901,36.328342 46.992901,40.131363 46.992901,43.934380 
	C46.512806,43.930759 46.032715,43.927139 45.552620,43.923519 
	C45.552620,36.986641 45.552620,30.049761 45.552620,23.112883 
	C46.032883,23.083492 46.513149,23.054102 46.993412,23.024712 
	C46.993412,25.865435 46.993412,28.706156 46.993156,32.036102 
z"/>
<path fill="#050505" opacity="1.000000" stroke="none" 
	d="
M27.996605,25.270634 
	C26.736223,25.322905 25.476711,24.976740 24.189310,24.622910 
	C23.031303,25.740305 21.588284,27.132721 19.230782,29.407551 
	C19.230782,26.369209 19.230782,24.932508 19.230782,22.188997 
	C22.341694,23.141146 25.169584,24.006672 27.996605,25.270634 
z"/>
<path fill="#010101" opacity="1.000000" stroke="none" 
	d="
M38.008415,34.861443 
	C38.111835,30.133047 38.111835,30.133047 41.858978,30.517021 
	C41.858978,32.429890 41.858978,34.358665 41.858978,37.594173 
	C40.278828,36.658840 39.144493,35.987400 38.008415,34.861443 
z"/>
<path fill="#050505" opacity="1.000000" stroke="none" 
	d="
M13.393709,75.037781 
	C13.435211,72.879333 13.950040,70.699310 14.528760,68.248741 
	C24.332529,68.248741 34.435986,68.248741 45.101578,68.248741 
	C44.729477,70.054398 44.387859,71.712120 44.307060,73.705154 
	C43.191677,73.214409 41.815479,72.388351 40.439278,71.562294 
	C40.528625,71.983582 40.617970,72.404869 40.707317,72.826157 
	C37.180740,73.553841 33.680611,74.680008 30.121418,74.916222 
	C24.724846,75.274345 19.287220,75.013870 13.393709,75.037781 
z"/>
<path fill="#070707" opacity="1.000000" stroke="none" 
	d="
M25.204063,97.265015 
	C26.844149,96.051659 28.223406,95.094292 29.925095,93.913124 
	C28.424881,102.301636 26.375740,103.632347 19.958673,100.583153 
	C21.713652,99.505020 23.328444,98.513016 25.204063,97.265015 
z"/>
<path fill="#010101" opacity="1.000000" stroke="none" 
	d="
M20.163990,86.106339 
	C20.496344,85.679802 21.066307,85.438332 21.636272,85.196861 
	C21.563993,85.563843 21.491716,85.930817 21.168007,86.450836 
	C20.744917,86.499725 20.573259,86.395569 20.163990,86.106339 
z"/>
<path fill="#010101" opacity="1.000000" stroke="none" 
	d="
M28.581017,87.794708 
	C28.148823,87.584213 28.011360,87.133759 27.969990,86.674652 
	C27.962420,86.590630 28.345831,86.471367 28.548759,86.368370 
	C28.668766,86.762840 28.788774,87.157303 28.581017,87.794708 
z"/>
<path fill="#030303" opacity="1.000000" stroke="none" 
	d="
M35.042877,147.507416 
	C34.456219,149.546234 33.918179,152.359116 32.630302,152.759399 
	C30.576719,153.397644 27.999441,152.540741 25.708603,152.026550 
	C25.354206,151.946991 24.938463,150.117889 25.272001,149.467667 
	C25.779999,148.477325 26.845396,147.240280 27.802143,147.119095 
	C30.079882,146.830643 32.432629,147.134476 35.042877,147.507416 
z"/>
<path fill="#050505" opacity="1.000000" stroke="none" 
	d="
M46.174957,114.498077 
	C48.709690,111.428665 51.086128,111.283318 52.758179,114.654137 
	C53.287766,115.721764 52.968300,117.688004 52.272133,118.733414 
	C51.726486,119.552788 49.270206,120.235725 48.930092,119.853020 
	C47.675571,118.441368 46.947838,116.561577 46.174957,114.498077 
z"/>
</svg>